<svg xmlns="http://www.w3.org/2000/svg" width="75" height="75" viewBox="0 0 485.213 485.212"><path d="M470.052 136.467c-62.343 22.953-109.84 39.299-151.629 90.978-37.229 46.05-90.98 62.011-151.628 31.657v165.457h-30.329V15.163C136.465 6.781 143.247 0 151.628 0c8.38 0 15.166 6.781 15.166 15.163 33.67 48.953 92.189 59.795 151.628 60.653 90.976 1.33 151.63 60.651 151.63 60.651zM197.116 337.612v30.854c35.775 7.318 60.653 22.841 60.653 40.936 0 25.113-47.534 45.49-106.141 45.49-58.609 0-106.139-20.377-106.139-45.495 0-18.09 24.875-33.612 60.649-40.931v-30.854c-55.081 9.535-90.978 36.249-90.978 71.784 0 44.631 56.121 75.816 136.467 75.816 80.344 0 136.468-31.186 136.468-75.816.002-35.535-35.898-62.249-90.979-71.784z" fill="#ff6a68"/></svg>